<svg width="800" height="800" viewBox="0 0 800 800" fill="none" xmlns="http://www.w3.org/2000/svg">
<rect x="265.5" width="5" height="800" fill="#D9D9D9"/>
<rect x="529.5" width="5" height="800" fill="#D9D9D9"/>
<rect x="441.5" width="5" height="800" fill="#D9D9D9"/>
<rect x="353.5" width="5" height="800" fill="#D9D9D9"/>
<rect x="800" y="265.5" width="5" height="800" transform="rotate(90 800 265.5)" fill="#D9D9D9"/>
<rect x="800" y="529.5" width="5" height="800" transform="rotate(90 800 529.5)" fill="#D9D9D9"/>
<rect x="800" y="441.5" width="5" height="800" transform="rotate(90 800 441.5)" fill="#D9D9D9"/>
<rect x="800" y="353.5" width="5" height="800" transform="rotate(90 800 353.5)" fill="#D9D9D9"/>
<path d="M130.4 141L132.2 139.2H139.4C163.8 140.8 200.4 141.2 249.2 140.4C280.4 139.6 295.8 139.2 295.4 139.2H301.4L303.2 141C304.8 142.6 305.6 144.2 305.6 145.8C305.6 152.2 303.6 160 299.6 169.2C298.4 171.6 294.8 172.8 288.8 172.8C280.8 173.2 272.8 174.6 264.8 177L258.2 178.8L259.4 181.8L299.6 286.2L383 192C385.4 188 385.2 184.4 382.4 181.2C378 176 371.2 173.2 362 172.8C358 172.8 355.4 172 354.2 170.4C353 169.2 352.4 168 352.4 166.8L358.4 143.4V142.8C359.6 140.4 363.8 139.4 371 139.8C372.6 139.8 376 139.8 381.2 139.8C438.8 141.4 480.6 141.2 506.6 139.2H512L513.8 141C515.4 142.6 516.2 144.2 516.2 145.8C516.2 152.2 514.2 160 510.2 169.2C509.4 171.6 506.2 172.8 500.6 172.8C467 172.8 441.8 179.6 425 193.2C417.8 198.8 396.8 221.6 362 261.6L311.6 318L348.2 414C372.6 477.6 385.4 510 386.6 511.2C390.2 513.6 402.6 515 423.8 515.4H443.6L445.4 517.8C446.6 519 447.2 520.4 447.2 522C447.2 528.4 445.2 536.2 441.2 545.4C440 547.8 435.8 548.8 428.6 548.4C427 548.4 423.6 548.4 418.4 548.4C389.6 546.8 350.4 546.6 300.8 547.8C296.4 548.2 292.6 548.4 289.4 548.4C274.6 548.8 266.4 547.6 264.8 544.8C264.4 543.6 265 539 266.6 531C268.6 523.4 270.4 518.8 272 517.2C273.2 516 275 515.4 277.4 515.4C284.2 515.4 290.8 514.6 297.2 513C306.8 511 311.6 509.6 311.6 508.8L260.6 376.2C259.8 375.4 229.2 409.8 168.8 479.4C159.2 490.2 154.2 496 153.8 496.8C152.6 498.4 152 500.2 152 502.2C152.4 504.6 153.6 506.6 155.6 508.2C161.2 513 168.4 515.4 177.2 515.4C179.6 515.4 181.4 516 182.6 517.2C183.8 518.8 184.4 520.2 184.4 521.4L179 545.4C177.8 547.8 173.4 548.8 165.8 548.4C163.8 548.4 160.4 548.4 155.6 548.4C98 546.8 56.2 547 30.2 549H24.8L23 547.2C21.4 545.6 20.6 544.2 20.6 543L26 519.6C27.2 516.8 30.6 515.4 36.2 515.4C45 515.4 54.6 514.6 65 513C82.2 510.6 96.4 505.6 107.6 498C114 494 136 470.8 173.6 428.4C177.2 424.4 181.2 419.8 185.6 414.6C226 369 246.6 346 247.4 345.6L248.6 343.8L216.8 261C195.2 205.8 184.4 178 184.4 177.6C181.2 174.8 168.8 173.2 147.2 172.8C132.8 172.8 124.8 171.4 123.2 168.6C122.8 167.4 123.4 162.8 125 154.8C127 147.2 128.8 142.6 130.4 141Z" fill="#55AAFF"/>
<mask id="path-10-outside-1_1_24" maskUnits="userSpaceOnUse" x="513" y="277" width="285" height="285" fill="black">
<rect fill="white" x="513" y="277" width="285" height="285"/>
<path d="M671.8 285C685.8 283 699.6 283.6 713.2 286.8C744.4 293.6 766.8 311 780.4 339C796.4 371 795.6 406.8 778 446.4C774.8 453.6 771.2 460.6 767.2 467.4C744.4 505.4 712.8 531.8 672.4 546.6C662 550.2 651.4 552.8 640.6 554.4C632.2 556 621.6 556.2 608.8 555C607.6 554.6 606.6 554.4 605.8 554.4C583 550.8 563.8 541.6 548.2 526.8C535 513.2 526.4 497.2 522.4 478.8C514 442.8 522 405.8 546.4 367.8C560.8 345.4 578.8 327 600.4 312.6C624 296.6 647.8 287.4 671.8 285ZM692.2 312.6C676.6 310.6 661.6 313.6 647.2 321.6C624.4 334 607.8 355.2 597.4 385.2C590.6 403.6 585.2 423.8 581.2 445.8C574 481.4 579 505.6 596.2 518.4C597.4 519.2 598.6 520 599.8 520.8C605 524 610.6 525.8 616.6 526.2C638.6 530.2 659.6 523.6 679.6 506.4C684 502.8 688 498.8 691.6 494.4C703.6 480 713.4 457.4 721 426.6C721.8 424.6 722.4 422.4 722.8 420C729.2 394.8 732.4 376 732.4 363.6C732.4 353.6 731.2 345.8 728.8 340.2C725.6 331.4 719.6 324.4 710.8 319.2C705.6 315.6 699.4 313.4 692.2 312.6Z"/>
</mask>
<path d="M671.8 285C685.8 283 699.6 283.6 713.2 286.8C744.4 293.6 766.8 311 780.4 339C796.4 371 795.6 406.8 778 446.4C774.8 453.6 771.2 460.6 767.2 467.4C744.4 505.4 712.8 531.8 672.4 546.6C662 550.2 651.4 552.8 640.6 554.4C632.2 556 621.6 556.2 608.8 555C607.6 554.6 606.6 554.4 605.8 554.4C583 550.8 563.8 541.6 548.2 526.8C535 513.2 526.4 497.2 522.4 478.8C514 442.8 522 405.8 546.4 367.8C560.8 345.4 578.8 327 600.4 312.6C624 296.6 647.8 287.4 671.8 285ZM692.2 312.6C676.6 310.6 661.6 313.6 647.2 321.6C624.4 334 607.8 355.2 597.4 385.2C590.6 403.6 585.2 423.8 581.2 445.8C574 481.4 579 505.6 596.2 518.4C597.4 519.2 598.6 520 599.8 520.8C605 524 610.6 525.8 616.6 526.2C638.6 530.2 659.6 523.6 679.6 506.4C684 502.8 688 498.8 691.6 494.4C703.6 480 713.4 457.4 721 426.6C721.8 424.6 722.4 422.4 722.8 420C729.2 394.8 732.4 376 732.4 363.6C732.4 353.6 731.2 345.8 728.8 340.2C725.6 331.4 719.6 324.4 710.8 319.2C705.6 315.6 699.4 313.4 692.2 312.6Z" fill="black"/>
<path d="M671.8 285L672.397 290.97L672.523 290.958L672.649 290.94L671.8 285ZM713.2 286.8L711.826 292.64L711.874 292.652L711.922 292.662L713.2 286.8ZM780.4 339L775.003 341.621L775.018 341.652L775.033 341.683L780.4 339ZM778 446.4L772.517 443.963L772.517 443.963L778 446.4ZM767.2 467.4L772.345 470.487L772.358 470.465L772.372 470.442L767.2 467.4ZM672.4 546.6L674.363 552.27L674.413 552.252L674.464 552.234L672.4 546.6ZM640.6 554.4L639.721 548.465L639.599 548.483L639.477 548.506L640.6 554.4ZM608.8 555L606.903 560.692L607.555 560.91L608.24 560.974L608.8 555ZM605.8 554.4L604.864 560.327L605.329 560.4H605.8V554.4ZM548.2 526.8L543.895 530.979L543.981 531.068L544.07 531.153L548.2 526.8ZM522.4 478.8L528.263 477.525L528.253 477.481L528.243 477.437L522.4 478.8ZM546.4 367.8L541.353 364.555L541.351 364.558L546.4 367.8ZM600.4 312.6L603.728 317.592L603.748 317.579L603.767 317.566L600.4 312.6ZM692.2 312.6L691.437 318.551L691.487 318.558L691.537 318.563L692.2 312.6ZM647.2 321.6L650.067 326.871L650.09 326.858L650.114 326.845L647.2 321.6ZM597.4 385.2L603.028 387.28L603.049 387.223L603.069 387.165L597.4 385.2ZM581.2 445.8L587.081 446.989L587.093 446.931L587.103 446.873L581.2 445.8ZM596.2 518.4L592.618 523.213L592.743 523.306L592.872 523.392L596.2 518.4ZM599.8 520.8L596.472 525.792L596.563 525.853L596.655 525.91L599.8 520.8ZM616.6 526.2L617.673 520.297L617.339 520.236L616.999 520.213L616.6 526.2ZM679.6 506.4L675.801 501.756L675.744 501.803L675.688 501.851L679.6 506.4ZM691.6 494.4L686.991 490.559L686.973 490.58L686.956 490.601L691.6 494.4ZM721 426.6L715.429 424.372L715.274 424.758L715.175 425.163L721 426.6ZM722.8 420L716.985 418.523L716.923 418.766L716.882 419.014L722.8 420ZM728.8 340.2L723.161 342.25L723.219 342.409L723.285 342.563L728.8 340.2ZM710.8 319.2L707.385 324.133L707.562 324.256L707.748 324.366L710.8 319.2ZM671.8 285L672.649 290.94C685.917 289.044 698.963 289.614 711.826 292.64L713.2 286.8L714.574 280.959C700.237 277.586 685.683 276.956 670.951 279.06L671.8 285ZM713.2 286.8L711.922 292.662C741.379 299.082 762.231 315.325 775.003 341.621L780.4 339L785.797 336.379C771.369 306.675 747.421 288.118 714.478 280.938L713.2 286.8ZM780.4 339L775.033 341.683C790.062 371.74 789.559 405.62 772.517 443.963L778 446.4L783.483 448.837C801.641 407.98 802.738 370.26 785.767 336.317L780.4 339ZM778 446.4L772.517 443.963C769.409 450.955 765.913 457.753 762.028 464.358L767.2 467.4L772.372 470.442C776.487 463.447 780.191 456.245 783.483 448.837L778 446.4ZM767.2 467.4L762.055 464.313C739.938 501.175 709.407 526.653 670.336 540.966L672.4 546.6L674.464 552.234C716.193 536.947 748.862 509.625 772.345 470.487L767.2 467.4ZM672.4 546.6L670.437 540.93C660.387 544.409 650.149 546.92 639.721 548.465L640.6 554.4L641.479 560.335C652.651 558.68 663.613 555.991 674.363 552.27L672.4 546.6ZM640.6 554.4L639.477 548.506C631.835 549.962 621.851 550.197 609.36 549.026L608.8 555L608.24 560.974C621.349 562.203 632.565 562.038 641.723 560.294L640.6 554.4ZM608.8 555L610.697 549.308C609.198 548.808 607.508 548.4 605.8 548.4V554.4V560.4C605.715 560.4 605.761 560.391 605.973 560.433C606.18 560.475 606.485 560.553 606.903 560.692L608.8 555ZM605.8 554.4L606.736 548.473C585.042 545.048 566.983 536.349 552.33 522.447L548.2 526.8L544.07 531.153C560.617 546.851 580.958 556.552 604.864 560.327L605.8 554.4ZM548.2 526.8L552.505 522.621C540.08 509.819 532.023 494.823 528.263 477.525L522.4 478.8L516.537 480.075C520.777 499.577 529.92 516.581 543.895 530.979L548.2 526.8ZM522.4 478.8L528.243 477.437C520.291 443.355 527.717 408.001 551.449 371.042L546.4 367.8L541.351 364.558C516.283 403.599 507.709 442.245 516.557 480.163L522.4 478.8ZM546.4 367.8L551.447 371.045C565.412 349.321 582.833 331.522 603.728 317.592L600.4 312.6L597.072 307.608C574.767 322.478 556.188 341.479 541.353 364.555L546.4 367.8ZM600.4 312.6L603.767 317.566C626.692 302.024 649.556 293.254 672.397 290.97L671.8 285L671.203 279.03C646.044 281.546 621.308 291.176 597.033 307.634L600.4 312.6ZM692.2 312.6L692.963 306.649C676.031 304.478 659.748 307.765 644.286 316.355L647.2 321.6L650.114 326.845C663.452 319.435 677.169 316.722 691.437 318.551L692.2 312.6ZM647.2 321.6L644.333 316.329C619.942 329.595 602.506 352.153 591.731 383.235L597.4 385.2L603.069 387.165C613.094 358.247 628.858 338.405 650.067 326.871L647.2 321.6ZM597.4 385.2L591.772 383.12C584.836 401.889 579.351 422.43 575.297 444.727L581.2 445.8L587.103 446.873C591.049 425.17 596.364 405.311 603.028 387.28L597.4 385.2ZM581.2 445.8L575.319 444.611C568 480.799 572.485 508.231 592.618 523.213L596.2 518.4L599.782 513.587C585.515 502.969 580 482.001 587.081 446.989L581.2 445.8ZM596.2 518.4L592.872 523.392C594.072 524.192 595.272 524.992 596.472 525.792L599.8 520.8L603.128 515.808C601.928 515.008 600.728 514.208 599.528 513.408L596.2 518.4ZM599.8 520.8L596.655 525.91C602.672 529.613 609.213 531.721 616.201 532.187L616.6 526.2L616.999 520.213C611.987 519.879 607.328 518.387 602.945 515.69L599.8 520.8ZM616.6 526.2L615.527 532.103C639.636 536.487 662.415 529.093 683.512 510.949L679.6 506.4L675.688 501.851C656.785 518.107 637.564 523.913 617.673 520.297L616.6 526.2ZM679.6 506.4L683.399 511.044C688.108 507.191 692.391 502.908 696.244 498.199L691.6 494.4L686.956 490.601C683.609 494.692 679.892 498.409 675.801 501.756L679.6 506.4ZM691.6 494.4L696.209 498.241C709.062 482.817 719.139 459.189 726.825 428.037L721 426.6L715.175 425.163C707.661 455.611 698.138 477.183 686.991 490.559L691.6 494.4ZM721 426.6L726.571 428.828C727.55 426.38 728.256 423.758 728.718 420.986L722.8 420L716.882 419.014C716.544 421.042 716.05 422.82 715.429 424.372L721 426.6ZM722.8 420L728.615 421.477C735.035 396.201 738.4 376.792 738.4 363.6H732.4H726.4C726.4 375.208 723.365 393.399 716.985 418.523L722.8 420ZM732.4 363.6H738.4C738.4 353.243 737.176 344.512 734.315 337.836L728.8 340.2L723.285 342.563C725.224 347.088 726.4 353.957 726.4 363.6H732.4ZM728.8 340.2L734.439 338.15C730.719 327.92 723.732 319.872 713.852 314.034L710.8 319.2L707.748 324.366C715.468 328.928 720.481 334.88 723.161 342.25L728.8 340.2ZM710.8 319.2L714.215 314.267C708.085 310.023 700.906 307.53 692.863 306.637L692.2 312.6L691.537 318.563C697.894 319.27 703.115 321.177 707.385 324.133L710.8 319.2Z" fill="white" mask="url(#path-10-outside-1_1_24)"/>
</svg>
